<svg version="1.2" xmlns="http://www.w3.org/2000/svg" viewBox="0 0 384 179" width="384" height="179">
	<title>kattcafelogo</title>
	<style>
		.s0 { fill: #000000 } 
		.s1 { fill: none;stroke: #000000;stroke-linecap: round;stroke-linejoin: round;stroke-width: 3.2 } 
		.s2 { fill: none;stroke: #000000;stroke-miterlimit:10;stroke-width: .8 } 
	</style>
	<g>
		<path class="s0" d="m55.6 173.5h-5.3v-32.2l0.1-7.6-4.2 5.1-14.9 16-13.5-13.3-6.1-7 0.3 6.8-0.1 32.2h-5.5v-52.7l24.9 26.3 24.3-26.3z"/>
		<path class="s0" d="m99.3 161.8c-3.5 7.9-10.8 12.2-17.9 12.2-10.5 0-18.9-8.6-18.9-19.1 0-10.4 8.4-19 18.9-19 10.4 0 18.8 8.6 18.8 19 0 0.8 0 1.4-0.1 2.2h-6.8-3.6-21.9c0 5.7 6.6 12.2 13.6 12.2 5.4 0 9.6-3.7 11.7-7.5 1.3 0 4.2 0 6.2 0zm-31.5-9.3h1.3 23.6 2.3c0-0.5-0.3-1.7-0.6-2.3-2.3-6-6.8-9.5-13-9.5-6.1 0-11.3 4.1-13.3 9.9-0.3 0.7-0.3 1.5-0.3 1.9z"/>
		<path class="s0" d="m123.8 174.5c-10.7 0-19.7-8.7-19.7-19.6 0-10.7 9-19.5 19.7-19.5 10.8 0 19.6 8.8 19.6 19.5 0 10.9-8.8 19.6-19.6 19.6zm0-5.2c7.9 0 14.1-6.1 14.1-14.4 0-8.2-6.2-14.4-14.1-14.4-8 0-14.2 6.2-14.2 14.4 0 8.3 6.2 14.4 14.2 14.4z"/>
		<path class="s0" d="m202.9 136.5l-14.6 37.8-11.4-23.7-2-4.2-1.9 4.2-11.2 23.7-15.5-37.8h5.6l8.4 22.6 1.6 4.1 3.5-7 9.6-20.5 9.5 19.6 3.2 6.6 1.3-3.9 8.2-21.5z"/>
		<path class="s0" d="m264.8 164.9c-3.2 5.1-9 8.9-15.6 8.9-10.2 0-18.1-8.6-18.1-18.8 0-10.2 7.9-18.9 18.1-18.9 6.1 0 11.7 3.4 14.9 8l-4.3 2.7c-2.2-2.6-5.8-5.6-10.6-5.6-7.7 0-13 5.6-13 13.8 0 7.3 5.5 14 12.8 14 4.6 0 8.5-3.1 10.7-6z"/>
		<path class="s0" d="m307.4 136.5v37h-5v-4-1.4c-0.6 0.8-2 1.8-2.9 2.4-3.2 2.6-7 3.7-11.6 3.7-10.5 0-19-8.5-19-18.9 0-10.5 8.5-19.1 19-19.1 4.5 0 9.2 2.4 11.9 4.6 1 1.2 1.7 1.7 2.2 2.2v-2.4-4.1zm-4.8 19c0-7.6-7-14.5-14.7-14.5-7.7 0-14.2 6.7-14.2 14.4 0 7.4 6.5 14 14 14 7.7 0 14.9-6.3 14.9-13.9z"/>
		<path class="s0" d="m334.2 141.5h-9.1v32h-5.4v-32h-5.2v-5h5.2v-7.1c0-0.1 0-0.2 0-0.4 0-5 3.7-8.5 9-8.8 5.7-0.2 7.7 2.6 9 3.8l-4.2 3c-1.8-1.9-4.1-2.1-5.1-1.8-1.4 0.3-3.3 1.8-3.3 4.2v7.1h9.1z"/>
		<path class="s0" d="m379.2 161.7c-3.4 8-10.6 12.2-17.9 12.2-10.3 0-18.8-8.6-18.8-19 0-10.4 8.5-19.1 18.8-19.1 10.5 0 19.1 8.7 19.1 19.1 0 0.7-0.1 1.4-0.1 2.1h-7-3.6-22c0 5.7 6.8 12.3 13.6 12.3 5.6 0 9.8-3.8 11.8-7.6 1.3 0 4.2 0 6.1 0zm-31.5-9.2l1.4-0.2h23.6l2.3 0.2c0-0.7-0.3-1.9-0.6-2.5-2.3-5.9-6.7-9.5-13.1-9.5-5.9 0-11.3 4.1-13.2 9.9-0.3 0.7-0.4 1.6-0.4 2.1zm10.8-19.7l-2.5-2.9 11.3-9.5 2.7 3z"/>
	</g>
	<path class="s1" d="m138.3 124.9l32.4-117.7 9.8 21.6c0 0 15.7-7.9 22.6 0l8.8-21.6 35.4 117.7"/>
	<path fill-rule="evenodd" class="s0" d="m182.5 48c-2.2 0-3.9-1.8-3.9-4 0-2.2 1.7-3.9 3.9-3.9 2.2 0 3.9 1.7 3.9 3.9 0 2.2-1.7 4-3.9 4z"/>
	<path fill-rule="evenodd" class="s0" d="m191.6 60.7c-1.9 0-3.3-1-3.3-2.2 0-1.2 1.4-2.1 3.3-2.1 1.8 0 3.3 0.9 3.3 2.1 0 1.2-1.5 2.2-3.3 2.2z"/>
	<path fill-rule="evenodd" class="s2" d="m171.1 59l15.7-1.5"/>
	<path fill-rule="evenodd" class="s2" d="m185.9 60l-9.3 5.9"/>
	<path fill-rule="evenodd" class="s2" d="m198 58l16.9 1.2"/>
	<path fill-rule="evenodd" class="s2" d="m197.1 59.2l12.8 3.4"/>
	<path fill-rule="evenodd" class="s2" d="m185.9 58.6l-12.3 4.4"/>
	<path fill-rule="evenodd" class="s2" d="m197.1 56.3l12.8-1.2"/>
	<path fill-rule="evenodd" class="s0" d="m202.3 48c-2.2 0-4-1.8-4-4 0-2.2 1.8-3.9 4-3.9 2.1 0 3.9 1.7 3.9 3.9 0 2.2-1.8 4-3.9 4z"/>
	<g>
	</g>
	<g>
	</g>
	<g>
	</g>
	<g>
	</g>
	<g>
	</g>
	<g>
	</g>
	<g>
	</g>
	<g>
	</g>
	<g>
	</g>
	<g>
	</g>
	<g>
	</g>
	<g>
	</g>
	<g>
	</g>
	<g>
	</g>
	<g>
	</g>
</svg>