<svg version="1.2" xmlns="http://www.w3.org/2000/svg" viewBox="0 0 500 222" width="384" height="170">
	<title>logoDarkmode</title>
	<style>
		.s0 { fill: #f4efef } 
		.s1 { fill: none;stroke: #f4efef;stroke-linecap: round;stroke-linejoin: round;stroke-width: 4 } 
		.s2 { fill: none;stroke: #f4efef;stroke-miterlimit:10 } 
	</style>
	<g>
		<path class="s0" d="m80.1 215h-6.7v-40.6l0.1-9.6-5.3 6.4-18.7 20.3-17.1-16.9-7.6-8.8 0.3 8.6-0.1 40.6h-6.9v-66.5l31.4 33.2 30.6-33.2c0 0 0 66.5 0 66.5z"/>
		<path class="s0" d="m135.1 200.3c-4.3 10-13.5 15.4-22.5 15.4-13.2 0-23.8-10.9-23.8-24.1 0-13.1 10.6-24 23.8-24 13.1 0 23.7 10.9 23.7 24 0 1 0 1.8-0.1 2.7h-8.6-4.6-27.6c0 7.2 8.4 15.5 17.2 15.5 6.8 0 12.1-4.7 14.8-9.5 1.6 0 5.2 0 7.7 0zm-39.7-11.8h1.7 29.7 2.9c0-0.6-0.3-2.1-0.7-2.9-2.9-7.5-8.6-12-16.4-12-7.7 0-14.2 5.2-16.8 12.5-0.3 0.9-0.4 1.9-0.4 2.4z"/>
		<path class="s0" d="m166 216.3c-13.5 0-24.8-11-24.8-24.7 0-13.5 11.3-24.7 24.8-24.7 13.7 0 24.7 11.2 24.7 24.7 0 13.7-11 24.7-24.7 24.7zm0-6.6c10 0 17.8-7.6 17.8-18.1 0-10.4-7.8-18.2-17.8-18.2-10.1 0-17.9 7.8-17.9 18.2 0 10.5 7.8 18.1 17.9 18.1z"/>
		<path class="s0" d="m265.8 168.3l-18.5 47.8-14.3-30-2.5-5.2-2.4 5.3-14.2 29.9-19.5-47.8h7l10.7 28.6 2 5.1 4.4-8.8 12.1-25.9 12 24.8 4 8.3 1.6-4.9 10.4-27.2c0 0 7.2 0 7.2 0z"/>
		<path class="s0" d="m343.7 204.2c-4 6.5-11.3 11.2-19.6 11.2-12.9 0-22.8-10.8-22.8-23.7 0-12.9 9.9-23.9 22.8-23.9 7.7 0 14.7 4.3 18.8 10.1l-5.5 3.5c-2.8-3.4-7.2-7.1-13.3-7.1-9.7 0-16.4 7.1-16.4 17.4 0 9.2 7 17.7 16.1 17.7 5.9 0 10.8-4 13.5-7.6z"/>
		<path class="s0" d="m397.4 168.3v46.7h-6.2v-5-1.8c-0.8 1.1-2.6 2.3-3.7 3.1-4.1 3.2-8.8 4.7-14.6 4.7-13.2 0-24-10.8-24-23.9 0-13.3 10.8-24.1 24-24.1 5.6 0 11.6 3 15 5.8 1.2 1.5 2.1 2.1 2.8 2.7v-3-5.2c0 0 6.7 0 6.7 0zm-6.1 24c0-9.6-8.8-18.3-18.5-18.3-9.7 0-17.9 8.5-17.9 18.2 0 9.4 8.1 17.7 17.6 17.7 9.7 0 18.8-8 18.8-17.6z"/>
		<path class="s0" d="m431.2 174.6h-11.5v40.4h-6.8v-40.4h-6.5v-6.2h6.5v-9c0-0.2 0-0.3 0-0.5 0-6.4 4.7-10.8 11.4-11.2 7.2-0.2 9.7 3.3 11.3 4.9l-5.3 3.7c-2.2-2.3-5.1-2.6-6.4-2.2-1.7 0.4-4.2 2.3-4.2 5.3v9h11.5z"/>
		<path class="s0" d="m488 200.1c-4.3 10.1-13.4 15.5-22.6 15.5-13 0-23.7-10.9-23.7-24 0-13.2 10.7-24.2 23.7-24.2 13.2 0 24 11 24 24.2 0 0.9-0.1 1.7-0.1 2.6h-8.8-4.5-27.8c0 7.2 8.6 15.5 17.2 15.5 7 0 12.4-4.7 14.8-9.6 1.7 0 5.3 0 7.8 0zm-39.7-11.7l1.7-0.1h29.7l3 0.1c0-0.7-0.4-2.2-0.8-3-2.9-7.5-8.5-12-16.5-12-7.5 0-14.2 5.2-16.7 12.5-0.3 0.9-0.4 2-0.4 2.5zm13.6-24.7l-3.2-3.7 14.2-12 3.4 3.8z"/>
	</g>
	<path class="s1" d="m184.3 153.7l40.8-148.6 12.4 27.2c0 0 19.8-9.9 28.5 0l11.1-27.2 44.6 148.6"/>
	<path fill-rule="evenodd" class="s0" d="m240.1 56.6c-2.8 0-5-2.2-5-5 0-2.8 2.2-5 5-5 2.7 0 4.9 2.2 4.9 5 0 2.8-2.2 5-4.9 5z"/>
	<path fill-rule="evenodd" class="s0" d="m251.5 72.6c-2.3 0-4.2-1.2-4.2-2.7 0-1.5 1.9-2.7 4.2-2.7 2.3 0 4.1 1.2 4.1 2.7 0 1.5-1.8 2.7-4.1 2.7z"/>
	<path fill-rule="evenodd" class="s2" d="m225.7 70.5l19.7-1.9"/>
	<path fill-rule="evenodd" class="s2" d="m244.3 71.8l-11.7 7.4"/>
	<path fill-rule="evenodd" class="s2" d="m259.5 69.2l21.4 1.5"/>
	<path fill-rule="evenodd" class="s2" d="m258.4 70.7l16.2 4.3"/>
	<path fill-rule="evenodd" class="s2" d="m244.3 70l-15.5 5.5"/>
	<path fill-rule="evenodd" class="s2" d="m258.4 67.1l16.2-1.5"/>
	<path fill-rule="evenodd" class="s0" d="m265 56.6c-2.8 0-5-2.2-5-5 0-2.8 2.2-5 5-5 2.7 0 4.9 2.2 4.9 5 0 2.8-2.2 5-4.9 5z"/>
</svg>